<svg id="Слой_1" data-name="Слой 1" xmlns="http://www.w3.org/2000/svg" width="17.64mm" height="17.64mm" viewBox="0 0 50 50">
  <defs>
    <style>
      .cls-1 {
        fill: none;
        stroke: #000;
        stroke-linecap: round;
        stroke-linejoin: round;
        stroke-width: 2px;
      }
    </style>
  </defs>
  <title>Requests</title>
  <g id="comment">
    <path class="cls-1" d="M45.6,37.9a14.37,14.37,0,0,0,1.3-6.2,15,15,0,1,0-15,15,14.3,14.3,0,0,0,6.6-1.6c2.7,2.5,10.3.9,10.3.9C44.6,41.9,45.5,37.9,45.6,37.9Z"/>
  </g>
  <g id="comment-2" data-name="comment">
    <path class="cls-1" d="M32.3,13.8A14.89,14.89,0,0,0,18,3.4a15,15,0,0,0-15,15,14.37,14.37,0,0,0,1.3,6.2c.1,0,1,4-3.3,8.1,0,0,7.5,1.6,10.3-.9.9.4,1.8.8,2.7,1.1"/>
  </g>
</svg>
