<svg id="Слой_1" data-name="Слой 1" xmlns="http://www.w3.org/2000/svg" width="17.64mm" height="17.57mm" viewBox="0 0 50 49.8">
  <defs>
    <style>
      .cls-1 {
        fill: none;
        stroke: #000;
        stroke-linecap: round;
        stroke-linejoin: round;
        stroke-width: 2px;
      }
    </style>
  </defs>
  <title>Settings dark</title>
  <path class="cls-1" d="M24.7,6.8H7a5.38,5.38,0,0,0-5.4,5.4V42.9A5.38,5.38,0,0,0,7,48.3H37.7a5.38,5.38,0,0,0,5.4-5.4V25.2"/>
  <polygon class="cls-1" points="22.3 27.5 29.8 25.6 45.1 10.1 39.6 5 24.4 20.2 22.3 27.5"/>
  <path class="cls-1" d="M47.7,4.1l-2-1.8a2.42,2.42,0,0,0-3.5,0L39.6,5l5.6,5.1,2.6-2.6A2.39,2.39,0,0,0,47.7,4.1Z"/>
</svg>
